<mxfile host="app.diagrams.net" modified="2023-05-22T15:06:01.935Z" agent="Mozilla/5.0 (Windows NT 10.0; Win64; x64) AppleWebKit/537.36 (KHTML, like Gecko) Chrome/113.0.0.0 Safari/537.36" etag="Tta7I9XoD37iOnpD2HMx" version="21.3.2" type="device">
  <diagram name="Page-1" id="gO_5IgRI37eOFAwYB6fH">
    <mxGraphModel dx="1050" dy="541" grid="1" gridSize="10" guides="1" tooltips="1" connect="1" arrows="1" fold="1" page="1" pageScale="1" pageWidth="827" pageHeight="1169" math="0" shadow="0">
      <root>
        <mxCell id="0" />
        <mxCell id="1" parent="0" />
        <mxCell id="VJWchOgYu9Sy48n20VQM-21" style="rounded=0;orthogonalLoop=1;jettySize=auto;html=1;exitX=1;exitY=0.3333333333333333;exitDx=0;exitDy=0;exitPerimeter=0;entryX=0;entryY=0.5;entryDx=0;entryDy=0;endArrow=none;endFill=0;" edge="1" parent="1" source="VJWchOgYu9Sy48n20VQM-1" target="VJWchOgYu9Sy48n20VQM-9">
          <mxGeometry relative="1" as="geometry" />
        </mxCell>
        <mxCell id="VJWchOgYu9Sy48n20VQM-22" style="rounded=0;orthogonalLoop=1;jettySize=auto;html=1;exitX=1;exitY=0.3333333333333333;exitDx=0;exitDy=0;exitPerimeter=0;entryX=0;entryY=0.5;entryDx=0;entryDy=0;endArrow=none;endFill=0;" edge="1" parent="1" source="VJWchOgYu9Sy48n20VQM-1" target="VJWchOgYu9Sy48n20VQM-10">
          <mxGeometry relative="1" as="geometry" />
        </mxCell>
        <mxCell id="VJWchOgYu9Sy48n20VQM-23" style="rounded=0;orthogonalLoop=1;jettySize=auto;html=1;exitX=1;exitY=0.3333333333333333;exitDx=0;exitDy=0;exitPerimeter=0;entryX=0;entryY=0.5;entryDx=0;entryDy=0;endArrow=none;endFill=0;" edge="1" parent="1" source="VJWchOgYu9Sy48n20VQM-1" target="VJWchOgYu9Sy48n20VQM-11">
          <mxGeometry relative="1" as="geometry" />
        </mxCell>
        <mxCell id="VJWchOgYu9Sy48n20VQM-24" style="rounded=0;orthogonalLoop=1;jettySize=auto;html=1;exitX=1;exitY=0.3333333333333333;exitDx=0;exitDy=0;exitPerimeter=0;entryX=0;entryY=0.5;entryDx=0;entryDy=0;endArrow=none;endFill=0;" edge="1" parent="1" source="VJWchOgYu9Sy48n20VQM-1" target="VJWchOgYu9Sy48n20VQM-16">
          <mxGeometry relative="1" as="geometry" />
        </mxCell>
        <mxCell id="VJWchOgYu9Sy48n20VQM-1" value="&lt;font size=&quot;3&quot;&gt;User&lt;/font&gt;" style="shape=umlActor;verticalLabelPosition=bottom;verticalAlign=top;html=1;outlineConnect=0;" vertex="1" parent="1">
          <mxGeometry x="40" y="440" width="40" height="70" as="geometry" />
        </mxCell>
        <mxCell id="VJWchOgYu9Sy48n20VQM-8" value="Generate Summary" style="ellipse;whiteSpace=wrap;html=1;fontSize=14;" vertex="1" parent="1">
          <mxGeometry x="240" y="720" width="240" height="40" as="geometry" />
        </mxCell>
        <mxCell id="VJWchOgYu9Sy48n20VQM-26" style="rounded=0;orthogonalLoop=1;jettySize=auto;html=1;exitX=1;exitY=0.5;exitDx=0;exitDy=0;entryX=0;entryY=0.5;entryDx=0;entryDy=0;endArrow=none;endFill=0;" edge="1" parent="1" source="VJWchOgYu9Sy48n20VQM-9" target="VJWchOgYu9Sy48n20VQM-15">
          <mxGeometry relative="1" as="geometry" />
        </mxCell>
        <mxCell id="VJWchOgYu9Sy48n20VQM-9" value="Upload The Document" style="ellipse;whiteSpace=wrap;html=1;fontSize=14;" vertex="1" parent="1">
          <mxGeometry x="240" y="200" width="240" height="40" as="geometry" />
        </mxCell>
        <mxCell id="VJWchOgYu9Sy48n20VQM-10" value="Choose Algorithm" style="ellipse;whiteSpace=wrap;html=1;fontSize=14;" vertex="1" parent="1">
          <mxGeometry x="240" y="300" width="240" height="40" as="geometry" />
        </mxCell>
        <mxCell id="VJWchOgYu9Sy48n20VQM-11" value="Choose Percentage" style="ellipse;whiteSpace=wrap;html=1;fontSize=14;" vertex="1" parent="1">
          <mxGeometry x="240" y="400" width="240" height="40" as="geometry" />
        </mxCell>
        <mxCell id="VJWchOgYu9Sy48n20VQM-12" value="Input File Read" style="ellipse;whiteSpace=wrap;html=1;fontSize=14;" vertex="1" parent="1">
          <mxGeometry x="240" y="480" width="240" height="40" as="geometry" />
        </mxCell>
        <mxCell id="VJWchOgYu9Sy48n20VQM-13" value="Preprocess Text" style="ellipse;whiteSpace=wrap;html=1;fontSize=14;" vertex="1" parent="1">
          <mxGeometry x="240" y="560" width="240" height="40" as="geometry" />
        </mxCell>
        <mxCell id="VJWchOgYu9Sy48n20VQM-14" value="Text Extraction" style="ellipse;whiteSpace=wrap;html=1;fontSize=14;" vertex="1" parent="1">
          <mxGeometry x="240" y="640" width="240" height="40" as="geometry" />
        </mxCell>
        <mxCell id="VJWchOgYu9Sy48n20VQM-29" style="rounded=0;orthogonalLoop=1;jettySize=auto;html=1;exitX=0;exitY=0.5;exitDx=0;exitDy=0;entryX=1;entryY=0.5;entryDx=0;entryDy=0;endArrow=none;endFill=0;" edge="1" parent="1" source="VJWchOgYu9Sy48n20VQM-15" target="VJWchOgYu9Sy48n20VQM-10">
          <mxGeometry relative="1" as="geometry" />
        </mxCell>
        <mxCell id="VJWchOgYu9Sy48n20VQM-30" style="rounded=0;orthogonalLoop=1;jettySize=auto;html=1;exitX=0;exitY=0.5;exitDx=0;exitDy=0;entryX=1;entryY=0.5;entryDx=0;entryDy=0;endArrow=none;endFill=0;" edge="1" parent="1" source="VJWchOgYu9Sy48n20VQM-15" target="VJWchOgYu9Sy48n20VQM-11">
          <mxGeometry relative="1" as="geometry" />
        </mxCell>
        <mxCell id="VJWchOgYu9Sy48n20VQM-31" style="rounded=0;orthogonalLoop=1;jettySize=auto;html=1;exitX=0;exitY=0.5;exitDx=0;exitDy=0;entryX=1;entryY=0.5;entryDx=0;entryDy=0;endArrow=none;endFill=0;" edge="1" parent="1" source="VJWchOgYu9Sy48n20VQM-15" target="VJWchOgYu9Sy48n20VQM-12">
          <mxGeometry relative="1" as="geometry" />
        </mxCell>
        <mxCell id="VJWchOgYu9Sy48n20VQM-32" style="rounded=0;orthogonalLoop=1;jettySize=auto;html=1;exitX=0;exitY=0.5;exitDx=0;exitDy=0;entryX=1;entryY=0.5;entryDx=0;entryDy=0;endArrow=none;endFill=0;" edge="1" parent="1" source="VJWchOgYu9Sy48n20VQM-15" target="VJWchOgYu9Sy48n20VQM-13">
          <mxGeometry relative="1" as="geometry" />
        </mxCell>
        <mxCell id="VJWchOgYu9Sy48n20VQM-33" style="rounded=0;orthogonalLoop=1;jettySize=auto;html=1;exitX=0;exitY=0.5;exitDx=0;exitDy=0;entryX=1;entryY=0.5;entryDx=0;entryDy=0;endArrow=none;endFill=0;" edge="1" parent="1" source="VJWchOgYu9Sy48n20VQM-15" target="VJWchOgYu9Sy48n20VQM-14">
          <mxGeometry relative="1" as="geometry" />
        </mxCell>
        <mxCell id="VJWchOgYu9Sy48n20VQM-34" style="rounded=0;orthogonalLoop=1;jettySize=auto;html=1;exitX=0;exitY=0.5;exitDx=0;exitDy=0;entryX=1;entryY=0.5;entryDx=0;entryDy=0;endArrow=none;endFill=0;" edge="1" parent="1" source="VJWchOgYu9Sy48n20VQM-15" target="VJWchOgYu9Sy48n20VQM-8">
          <mxGeometry relative="1" as="geometry" />
        </mxCell>
        <mxCell id="VJWchOgYu9Sy48n20VQM-35" style="rounded=0;orthogonalLoop=1;jettySize=auto;html=1;exitX=0;exitY=0.5;exitDx=0;exitDy=0;entryX=1;entryY=0.5;entryDx=0;entryDy=0;endArrow=none;endFill=0;" edge="1" parent="1" source="VJWchOgYu9Sy48n20VQM-15" target="VJWchOgYu9Sy48n20VQM-16">
          <mxGeometry relative="1" as="geometry" />
        </mxCell>
        <mxCell id="VJWchOgYu9Sy48n20VQM-15" value="&lt;font style=&quot;font-size: 14px;&quot;&gt;TextSummarizer&lt;/font&gt;" style="ellipse;whiteSpace=wrap;html=1;" vertex="1" parent="1">
          <mxGeometry x="587" y="460" width="240" height="40" as="geometry" />
        </mxCell>
        <mxCell id="VJWchOgYu9Sy48n20VQM-16" value="Display Summary" style="ellipse;whiteSpace=wrap;html=1;fontSize=14;" vertex="1" parent="1">
          <mxGeometry x="240" y="800" width="240" height="40" as="geometry" />
        </mxCell>
        <mxCell id="VJWchOgYu9Sy48n20VQM-17" value="&amp;lt;&amp;lt;include&amp;gt;&amp;gt;" style="text;html=1;align=center;verticalAlign=middle;resizable=0;points=[];autosize=1;strokeColor=none;fillColor=none;fontSize=14;" vertex="1" parent="1">
          <mxGeometry x="310" y="170" width="100" height="30" as="geometry" />
        </mxCell>
        <mxCell id="VJWchOgYu9Sy48n20VQM-18" value="&amp;lt;&amp;lt;extend&amp;gt;&amp;gt;" style="text;html=1;align=center;verticalAlign=middle;resizable=0;points=[];autosize=1;strokeColor=none;fillColor=none;fontSize=14;" vertex="1" parent="1">
          <mxGeometry x="310" y="268" width="100" height="30" as="geometry" />
        </mxCell>
        <mxCell id="VJWchOgYu9Sy48n20VQM-19" value="&amp;lt;&amp;lt;extend&amp;gt;&amp;gt;" style="text;html=1;align=center;verticalAlign=middle;resizable=0;points=[];autosize=1;strokeColor=none;fillColor=none;fontSize=14;" vertex="1" parent="1">
          <mxGeometry x="310" y="368" width="100" height="30" as="geometry" />
        </mxCell>
      </root>
    </mxGraphModel>
  </diagram>
</mxfile>
